<svg id="Capa_1" data-name="Capa 1" xmlns="http://www.w3.org/2000/svg" viewBox="0 0 665 425"><defs><style>.cls-1,.cls-14,.cls-16,.cls-17{fill:none;stroke-miterlimit:10;}.cls-1,.cls-14{stroke:#424242;}.cls-1{stroke-width:2.9px;}.cls-2{font-size:23.17px;}.cls-2,.cls-3{fill:#fff;font-family:Montserrat-Medium, Montserrat;font-weight:500;}.cls-3{font-size:17.38px;}.cls-4{letter-spacing:-0.01em;}.cls-5{letter-spacing:0.01em;}.cls-6{letter-spacing:-0.01em;}.cls-7{letter-spacing:-0.02em;}.cls-8{letter-spacing:0em;}.cls-9{letter-spacing:-0.02em;}.cls-10{letter-spacing:0em;}.cls-11{letter-spacing:-0.02em;}.cls-12{letter-spacing:0em;}.cls-13{letter-spacing:-0.01em;}.cls-14{stroke-width:2.82px;}.cls-15{fill:#cdff02;}.cls-16,.cls-17{stroke:#515151;}.cls-16{stroke-width:3.86px;}.cls-17{stroke-width:4.46px;}</style></defs><line class="cls-1" x1="309.23" y1="244.7" x2="823.77" y2="244.7"/><text class="cls-2" transform="translate(112.38 256.12)">ANÁLISIS</text><text class="cls-3" transform="translate(296.51 159.89)"><tspan class="cls-4">L</tspan><tspan x="10.2" y="0">e</tspan><tspan class="cls-5" x="20.84" y="0">c</tspan><tspan x="30.88" y="0">tu</tspan><tspan class="cls-6" x="49.84" y="0">r</tspan><tspan x="56.83" y="0">a K</tspan><tspan class="cls-7" x="84.4" y="0">P</tspan><tspan class="cls-8" x="96.61" y="0">i</tspan><tspan class="cls-9" x="101.46" y="0">’</tspan><tspan x="105.11" y="0">s</tspan></text><text class="cls-3" transform="translate(236.34 113.33)">Bussi<tspan class="cls-10" x="47.19" y="0">n</tspan><tspan x="59.07" y="0">ess in</tspan><tspan class="cls-11" x="108.48" y="0">t</tspan><tspan class="cls-8" x="115.37" y="0">elige</tspan><tspan class="cls-12" x="158.33" y="0">n</tspan><tspan class="cls-13" x="170.21" y="0">c</tspan><tspan class="cls-8" x="180" y="0">e</tspan></text><polygon class="cls-14" points="168.66 112.43 168.66 -170.8 169.63 -272.01 169.63 111.51 168.66 112.43"/><circle class="cls-15" cx="169.15" cy="118.71" r="9.66"/><path class="cls-16" d="M212.33,173.75c3.43-5.32,45.42-49.47,45.42-49.47H371.88"/><polyline class="cls-16" points="249.99 208.51 290.57 167.62 416 167.62"/><circle class="cls-17" cx="173.23" cy="249.54" r="86.9"/></svg>