<svg id="Capa_1" data-name="Capa 1" xmlns="http://www.w3.org/2000/svg" viewBox="0 0 665 230"><defs><style>.cls-1,.cls-8{font-size:17.38px;}.cls-1,.cls-4,.cls-8{fill:#fff;font-family:Montserrat-Medium, Montserrat;font-weight:500;}.cls-2{letter-spacing:-0.01em;}.cls-3{letter-spacing:-0.01em;}.cls-4{font-size:23.17px;}.cls-5{letter-spacing:-0.01em;}.cls-6{letter-spacing:0em;}.cls-7{letter-spacing:0em;}.cls-8{letter-spacing:-0.02em;}.cls-9{letter-spacing:-0.01em;}.cls-10{letter-spacing:-0.02em;}.cls-11,.cls-12,.cls-14{fill:none;stroke-miterlimit:10;}.cls-11,.cls-14{stroke:#be1622;}.cls-11{stroke-width:1.93px;}.cls-12{stroke:#424242;stroke-width:2.9px;}.cls-13{fill:#cdff02;}.cls-14{stroke-width:4.46px;}</style></defs><text class="cls-1" transform="translate(470.93 130.54)">Regist<tspan class="cls-2" x="56.01" y="0">r</tspan><tspan x="62.93" y="0">o de ma</tspan><tspan class="cls-3" x="134.57" y="0">r</tspan><tspan x="141.49" y="0">ca</tspan></text><text class="cls-4" transform="translate(244.3 149.72)">BRANDING</text><text class="cls-1" transform="translate(118.15 79.28)">B<tspan class="cls-5" x="13.16" y="0">r</tspan><tspan class="cls-6" x="20.16" y="0">ief</tspan></text><text class="cls-1" transform="translate(470.93 79.28)">Nami<tspan class="cls-7" x="47.72" y="0">n</tspan><tspan x="59.61" y="0">g</tspan></text><text class="cls-8" transform="translate(75.24 127.64)">C<tspan class="cls-6" x="12.18" y="0">o</tspan><tspan class="cls-7" x="23.22" y="0">n</tspan><tspan class="cls-9" x="35.11" y="0">c</tspan><tspan class="cls-6" x="44.89" y="0">ep</tspan><tspan class="cls-10" x="67.38" y="0">t</tspan><tspan class="cls-6" x="74.26" y="0">o</tspan></text><polyline class="cls-11" points="226.78 109.54 175.97 109.54 157.62 88.93 97.74 88.93"/><polyline class="cls-11" points="225.81 161.05 175.97 161.05 157.62 140.44 66.39 140.44"/><polyline class="cls-11" points="392.85 109.54 446.26 109.54 464.61 88.93 544.04 88.93"/><polyline class="cls-11" points="392.85 161.05 446.26 161.05 464.61 140.44 634.58 140.44"/><line class="cls-12" x1="310.9" y1="1.98" x2="310.9" y2="26.6"/><circle class="cls-13" cx="310.9" cy="31.27" r="9.66"/><circle class="cls-14" cx="310.3" cy="139.57" r="86.9"/></svg>