<svg id="Capa_1" data-name="Capa 1" xmlns="http://www.w3.org/2000/svg" viewBox="0 0 665 304"><defs><style>.cls-1,.cls-22,.cls-3{fill:none;stroke-miterlimit:10;}.cls-1{stroke:#424242;stroke-width:2.9px;}.cls-2{fill:#cdff02;}.cls-22,.cls-3{stroke:#36a9e1;}.cls-3{stroke-width:1.93px;}.cls-4{font-size:23.17px;}.cls-10,.cls-4,.cls-7{fill:#fff;font-family:Montserrat-Medium, Montserrat;font-weight:500;}.cls-5{letter-spacing:-0.02em;}.cls-6{letter-spacing:-0.04em;}.cls-10,.cls-7{font-size:17.38px;}.cls-8{letter-spacing:-0.01em;}.cls-9{letter-spacing:-0.03em;}.cls-10{letter-spacing:-0.01em;}.cls-11{letter-spacing:-0.01em;}.cls-12{letter-spacing:0em;}.cls-13{letter-spacing:0em;}.cls-14{letter-spacing:-0.04em;}.cls-15{letter-spacing:-0.02em;}.cls-16{letter-spacing:-0.01em;}.cls-17{letter-spacing:0em;}.cls-18{letter-spacing:-0.03em;}.cls-19{letter-spacing:-0.01em;}.cls-20{letter-spacing:0em;}.cls-21{letter-spacing:-0.05em;}.cls-22{stroke-width:4.46px;}</style></defs><line class="cls-1" x1="-371" y1="123.7" x2="143.54" y2="123.7"/><circle class="cls-2" cx="147.03" cy="123.7" r="9.66"/><line class="cls-1" x1="443" y1="123.7" x2="957.54" y2="123.7"/><polyline class="cls-3" points="226.78 172.47 198.19 196.52 46.25 196.52"/><polyline class="cls-3" points="391.88 172.47 417.96 196.52 578.37 196.52"/><line class="cls-3" x1="311.37" y1="229.93" x2="311.64" y2="253.1"/><text class="cls-4" transform="translate(241.76 149.12)"><tspan class="cls-5">C</tspan><tspan x="16.36" y="0">AM</tspan><tspan class="cls-6" x="55.45" y="0">P</tspan><tspan x="71.14" y="0">AÑAS</tspan></text><text class="cls-7" transform="translate(446.46 14.98)"><tspan class="cls-8">B</tspan><tspan x="12.98" y="0">TL / </tspan><tspan class="cls-9" x="48.98" y="0">A</tspan><tspan x="61.09" y="0">TL</tspan></text><text class="cls-10" transform="translate(470.93 50.09)">T<tspan class="cls-11" x="9.98" y="0">r</tspan><tspan class="cls-12" x="16.96" y="0">a</tspan><tspan class="cls-13" x="27.41" y="0">de M</tspan><tspan class="cls-14" x="71.17" y="0">K</tspan><tspan class="cls-13" x="82.92" y="0">T</tspan></text><text class="cls-7" transform="translate(80.08 14.98)">Inbou<tspan class="cls-12" x="51.88" y="0">n</tspan><tspan x="63.77" y="0">d</tspan></text><text class="cls-7" transform="translate(47.6 50.09)"><tspan class="cls-15">P</tspan><tspan class="cls-16" x="12.22" y="0">r</tspan><tspan class="cls-17" x="19.13" y="0">ospe</tspan><tspan class="cls-18" x="61.37" y="0">K</tspan><tspan x="73.39" y="0">ta</tspan></text><text class="cls-7" transform="translate(65.78 183.07)">Alianzas</text><text class="cls-7" transform="translate(470.93 183.07)">Influe<tspan class="cls-12" x="50.61" y="0">n</tspan><tspan class="cls-19" x="62.5" y="0">c</tspan><tspan class="cls-17" x="72.28" y="0">e</tspan><tspan class="cls-20" x="82.92" y="0">r</tspan><tspan x="89.99" y="0">s</tspan></text><text class="cls-7" transform="translate(290.33 271.47)"><tspan class="cls-21">W</tspan><tspan x="18.61" y="0">eb</tspan></text><line class="cls-1" x1="310.9" y1="1.57" x2="310.9" y2="24.75"/><circle class="cls-2" cx="310.9" cy="31.85" r="9.66"/><polyline class="cls-3" points="378.37 90.4 401.49 63.74 573.22 63.74"/><polyline class="cls-3" points="354.23 66.27 392.5 22.95 524.95 22.95"/><polyline class="cls-3" points="242.23 89.44 216.55 63.74 42.81 63.74"/><polyline class="cls-3" points="272.16 66.27 225.54 22.95 93.09 22.95"/><circle class="cls-22" cx="310.3" cy="143.03" r="86.9"/></svg>