<svg id="Capa_1" data-name="Capa 1" xmlns="http://www.w3.org/2000/svg" viewBox="0 0 665 227"><defs><style>.cls-1{font-size:17.38px;}.cls-1,.cls-9{fill:#fff;font-family:Montserrat-Medium, Montserrat;font-weight:500;}.cls-2{letter-spacing:0em;}.cls-3{letter-spacing:0em;}.cls-4{letter-spacing:-0.01em;}.cls-5{letter-spacing:-0.01em;}.cls-6{letter-spacing:0em;}.cls-7{letter-spacing:-0.02em;}.cls-8{letter-spacing:0.02em;}.cls-9{font-size:23.17px;}.cls-10{letter-spacing:-0.01em;}.cls-11{letter-spacing:-0.03em;}.cls-12{letter-spacing:0em;}.cls-13{letter-spacing:-0.02em;}.cls-14{letter-spacing:-0.01em;}.cls-15,.cls-16,.cls-18{fill:none;stroke-miterlimit:10;}.cls-15,.cls-18{stroke:#be1622;}.cls-15{stroke-width:1.93px;}.cls-16{stroke:#424242;stroke-width:2.9px;}.cls-17{fill:#cdff02;}.cls-18{stroke-width:4.46px;}</style></defs><text class="cls-1" transform="translate(66.82 37.27)">Identid<tspan class="cls-2" x="63.61" y="0">a</tspan><tspan class="cls-3" x="74.05" y="0">d</tspan><tspan class="cls-4" x="-14.04" y="16.41">c</tspan><tspan x="-4.26" y="16.41">o</tspan><tspan class="cls-5" x="6.78" y="16.41">r</tspan><tspan class="cls-6" x="13.78" y="16.41">po</tspan><tspan class="cls-4" x="36.67" y="16.41">r</tspan><tspan x="43.66" y="16.41">ati</tspan><tspan class="cls-7" x="66.09" y="16.41">v</tspan><tspan x="75.51" y="16.41">a</tspan></text><text class="cls-1" transform="translate(467.66 49.16)">Data anal<tspan class="cls-8" x="84.48" y="0">y</tspan><tspan x="94.46" y="0">tics</tspan></text><text class="cls-9" transform="translate(237.2 141.56)">E<tspan class="cls-10" x="15.53" y="0">S</tspan><tspan x="29.68" y="0">TR</tspan><tspan class="cls-11" x="60.13" y="0">A</tspan><tspan x="76.29" y="0">T</tspan><tspan class="cls-12" x="89.89" y="0">E</tspan><tspan x="105.34" y="0">GIA</tspan></text><text class="cls-1" transform="translate(470.93 85.64)"><tspan class="cls-13">C</tspan><tspan class="cls-6" x="12.18" y="0">omunic</tspan><tspan class="cls-2" x="79.96" y="0">a</tspan><tspan x="90.41" y="0">ción</tspan></text><text class="cls-1" transform="translate(470.93 116.47)">Hasht<tspan class="cls-2" x="52.24" y="0">a</tspan><tspan x="62.69" y="0">g</tspan></text><text class="cls-1" transform="translate(14.09 105.51)">Li<tspan class="cls-2" x="15.17" y="0">n</tspan><tspan class="cls-14" x="27.06" y="0">e</tspan><tspan x="37.44" y="0">a de dise</tspan><tspan class="cls-2" x="115.71" y="0">ñ</tspan><tspan x="127.6" y="0">o</tspan></text><polyline class="cls-15" points="235.47 86.2 175.97 86.2 157.62 65.59 42.81 65.59"/><polyline class="cls-15" points="220.02 138.81 175.97 137.71 157.62 117.1 11.84 117.1"/><polyline class="cls-15" points="377.4 80.4 446.26 80.4 464.61 59.79 594.29 59.79"/><polyline class="cls-15" points="392.85 111.92 446.26 111.92 464.61 91.31 600.76 91.31"/><polyline class="cls-15" points="395.75 146.25 446.26 146.25 464.61 125.64 548.58 125.64"/><line class="cls-16" x1="310.9" y1="2.67" x2="310.9" y2="20.53"/><circle class="cls-17" cx="310.9" cy="26.65" r="9.66"/><circle class="cls-18" cx="309.81" cy="134.95" r="86.9"/></svg>