<svg id="Capa_1" data-name="Capa 1" xmlns="http://www.w3.org/2000/svg" viewBox="0 0 665 561"><defs><style>.cls-1,.cls-21,.cls-22,.cls-24{fill:none;stroke-miterlimit:10;}.cls-1,.cls-22{stroke:#424242;}.cls-1{stroke-width:3.21px;}.cls-2,.cls-8{font-size:17.38px;}.cls-11,.cls-16,.cls-2,.cls-8{fill:#fff;font-family:Montserrat-Medium, Montserrat;font-weight:500;}.cls-3{letter-spacing:-0.01em;}.cls-4{letter-spacing:0em;}.cls-5{letter-spacing:0em;}.cls-6{letter-spacing:0em;}.cls-7{letter-spacing:-0.02em;}.cls-8{letter-spacing:-0.02em;}.cls-9{letter-spacing:-0.01em;}.cls-10{letter-spacing:-0.02em;}.cls-11{font-size:13.52px;}.cls-12{letter-spacing:-0.02em;}.cls-13{letter-spacing:0em;}.cls-14{letter-spacing:-0.02em;}.cls-15{letter-spacing:0em;}.cls-16{font-size:23.17px;}.cls-17{letter-spacing:-0.01em;}.cls-18{letter-spacing:0em;}.cls-19{letter-spacing:-0.02em;}.cls-20{letter-spacing:-0.03em;}.cls-21,.cls-24{stroke:#00b233;}.cls-21{stroke-width:1.93px;}.cls-22{stroke-width:2.82px;}.cls-23{fill:#cdff02;}.cls-24{stroke-width:3.86px;}</style></defs><line class="cls-1" x1="792" y1="168.69" x2="300.93" y2="168.69"/><text class="cls-2" transform="translate(371.79 441.52)">Re<tspan class="cls-3" x="23.27" y="0">c</tspan><tspan x="33.06" y="0">o</tspan><tspan class="cls-4" x="44.09" y="0">m</tspan><tspan class="cls-5" x="62.51" y="0">e</tspan><tspan class="cls-4" x="73.15" y="0">n</tspan><tspan class="cls-6" x="85.04" y="0">d</tspan><tspan class="cls-4" x="96.89" y="0">a</tspan><tspan x="107.34" y="0">ción</tspan></text><text class="cls-2" transform="translate(371.79 486.15)">Bo<tspan class="cls-7" x="24.19" y="0">t</tspan><tspan class="cls-5" x="31.07" y="0">ón en sis</tspan><tspan class="cls-7" x="108.03" y="0">t</tspan><tspan x="114.91" y="0">ema</tspan></text><text class="cls-8" transform="translate(371.79 526.49)">C<tspan class="cls-5" x="12.18" y="0">ódigo</tspan></text><text class="cls-2" transform="translate(371.79 257.07)">Re<tspan class="cls-3" x="23.27" y="0">c</tspan><tspan x="33.06" y="0">omp</tspan><tspan class="cls-9" x="74.32" y="0">r</tspan><tspan x="81.3" y="0">a</tspan></text><text class="cls-2" transform="translate(371.79 301.69)">E<tspan class="cls-4" x="11.64" y="0">n</tspan><tspan x="23.53" y="0">cuesta</tspan></text><text class="cls-2" transform="translate(371.79 337.2)"><tspan class="cls-10">C</tspan><tspan x="12.27" y="0">upo</tspan><tspan class="cls-4" x="46.92" y="0">n</tspan><tspan class="cls-5" x="58.81" y="0">es de descuen</tspan><tspan class="cls-7" x="185.35" y="0">t</tspan><tspan x="192.24" y="0">o</tspan></text><text class="cls-11" transform="translate(371.65 366.78)"><tspan class="cls-12">C</tspan><tspan x="9.54" y="0">upo</tspan><tspan class="cls-13" x="36.5" y="0">n</tspan><tspan x="45.74" y="0">es de descuen</tspan><tspan class="cls-14" x="144.16" y="0">t</tspan><tspan class="cls-15" x="149.52" y="0">o</tspan></text><text class="cls-16" transform="translate(95.74 179.04)">PO<tspan class="cls-17" x="36.2" y="0">S</tspan><tspan class="cls-18" x="50.35" y="0">T </tspan><tspan class="cls-19" x="70.19" y="0">V</tspan><tspan x="86.34" y="0">EN</tspan><tspan class="cls-20" x="120.68" y="0">T</tspan><tspan x="133.48" y="0">A</tspan></text><polyline class="cls-21" points="241.07 224.35 285.61 265.84 465.11 265.84"/><polyline class="cls-21" points="345.35 265.84 345.35 309.06 465.11 309.06"/><polyline class="cls-21" points="345.35 298 345.35 348.11 581.82 348.11"/><polyline class="cls-21" points="204.38 251.39 295.57 453.58 532.9 453.58"/><polyline class="cls-21" points="345.35 453.58 345.35 496.2 532.9 496.2"/><polyline class="cls-21" points="345.35 483.62 345.35 534.24 430.21 534.24"/><polygon class="cls-22" points="168.43 684.43 168.43 401.2 169.4 299.99 169.4 683.51 168.43 684.43"/><circle class="cls-23" cx="295.17" cy="169.05" r="9.66"/><circle class="cls-24" cx="169.62" cy="172.24" r="86.9"/></svg>