<svg id="Capa_1" data-name="Capa 1" xmlns="http://www.w3.org/2000/svg" viewBox="0 0 665 545"><defs><style>.cls-1,.cls-14,.cls-15,.cls-16{fill:none;stroke-miterlimit:10;}.cls-1,.cls-14{stroke:#424242;}.cls-1{stroke-width:2.9px;}.cls-2{fill:#cdff02;}.cls-3{font-size:17.38px;}.cls-11,.cls-12,.cls-3{fill:#fff;font-family:Montserrat-Medium, Montserrat;font-weight:500;}.cls-4{letter-spacing:-0.02em;}.cls-5{letter-spacing:0em;}.cls-6{letter-spacing:-0.01em;}.cls-7{letter-spacing:0.01em;}.cls-8{letter-spacing:0.02em;}.cls-9{letter-spacing:-0.01em;}.cls-10{letter-spacing:0em;}.cls-11{font-size:13.52px;}.cls-12{font-size:40.5px;}.cls-13{letter-spacing:0.01em;}.cls-14{stroke-width:2.8px;}.cls-15,.cls-16{stroke:#f9b233;}.cls-15{stroke-width:1.93px;}.cls-16{stroke-width:3.86px;}</style></defs><line class="cls-1" x1="-246" y1="361.7" x2="268.54" y2="361.7"/><circle class="cls-2" cx="272.03" cy="361.7" r="9.66"/><text class="cls-3" transform="translate(150.66 155.74)">Clien<tspan class="cls-4" x="44.74" y="0">t</tspan><tspan class="cls-5" x="51.62" y="0">es p</tspan><tspan class="cls-6" x="87.49" y="0">r</tspan><tspan x="94.41" y="0">ospe</tspan><tspan class="cls-7" x="136.64" y="0">c</tspan><tspan class="cls-4" x="146.68" y="0">t</tspan><tspan class="cls-5" x="153.57" y="0">o</tspan></text><text class="cls-3" transform="translate(150.66 202.94)">Se<tspan class="cls-8" x="21.43" y="0">r</tspan><tspan x="28.82" y="0">vicio al </tspan><tspan class="cls-9" x="93.78" y="0">c</tspan><tspan x="103.58" y="0">lien</tspan><tspan class="cls-4" x="135.75" y="0">t</tspan><tspan x="142.63" y="0">e</tspan></text><text class="cls-3" transform="translate(150.66 256.16)">Whatsapp busi<tspan class="cls-10" x="133.65" y="0">n</tspan><tspan x="145.54" y="0">ess</tspan></text><text class="cls-11" transform="translate(150.68 226.22)">A definir</text><text class="cls-12" transform="translate(419.63 377.78)">RH</text><text class="cls-3" transform="translate(154.56 405.92)">Al<tspan class="cls-13" x="17.57" y="0">f</tspan><tspan x="23.88" y="0">y</tspan></text><text class="cls-3" transform="translate(148.73 452.63)">CRM si<tspan class="cls-6" x="60.03" y="0">r</tspan><tspan x="66.95" y="0">ena</tspan></text><polygon class="cls-14" points="456.96 -164.51 456.96 115.66 456 215 456 -157.04 456.96 -164.51"/><polyline class="cls-15" points="390.56 303.3 354.65 268.56 133.28 268.56"/><polyline class="cls-15" points="422.42 285.92 346.83 209.25 133.28 209.25"/><polyline class="cls-15" points="467.8 279.16 352.45 163.37 133.28 163.37"/><polyline class="cls-15" points="365.45 382.48 326.48 420.95 133.28 420.95"/><polyline class="cls-15" points="384.76 422.06 332.55 472.12 133.28 472.12"/><circle class="cls-16" cx="451.85" cy="366.54" r="86.9"/></svg>