<svg id="Capa_1" data-name="Capa 1" xmlns="http://www.w3.org/2000/svg" viewBox="0 0 665 233"><defs><style>.cls-1,.cls-2{fill:none;stroke:#424242;stroke-miterlimit:10;}.cls-1{stroke-width:3.21px;}.cls-2{stroke-width:2.9px;}.cls-3{fill:#cdff02;}.cls-4{fill:#fff;}</style></defs><line class="cls-1" x1="111.72" y1="171.69" x2="-379.35" y2="171.69"/><line class="cls-1" x1="1016.72" y1="171.69" x2="525.65" y2="171.69"/><rect class="cls-2" x="154.76" y="107.05" width="312.83" height="122.06"/><polyline class="cls-2" points="111.81 166.04 111.81 71.74 518.02 71.74 518.02 167.49"/><circle class="cls-3" cx="518.02" cy="172.05" r="9.66"/><circle class="cls-3" cx="111.81" cy="172.05" r="9.66"/><path class="cls-4" d="M193.51,173.27V179h-5.7V152.11h9.77a10.58,10.58,0,1,1,0,21.16Zm0-15.46v9.76h4.07a4.88,4.88,0,0,0,0-9.76Z"/><path class="cls-4" d="M222.81,162.69a5.5,5.5,0,0,0-4,1.66,5.83,5.83,0,0,0-.84,1.07V179h-5.7V157.81h5.7v.26a11,11,0,0,1,4.88-1.08Z"/><path class="cls-4" d="M243.89,160.33a11.38,11.38,0,1,1-8.06-3.34A11,11,0,0,1,243.89,160.33Zm-8.06,2.36a5.7,5.7,0,1,0,4,1.66A5.46,5.46,0,0,0,235.83,162.69Z"/><path class="cls-4" d="M257,163.5V179H251.3V152.11H257v5.7h4.07v5.69Z"/><path class="cls-4" d="M281.33,160.33a11.38,11.38,0,1,1-8.06-3.34A11,11,0,0,1,281.33,160.33Zm-8.06,2.36a5.7,5.7,0,1,0,4,1.66A5.46,5.46,0,0,0,273.27,162.69Z"/><path class="cls-4" d="M294.43,166.82V179h-5.69V152.11h5.69v12.11l8.83-12.11h7.09l-9.8,13.44,9.8,13.42h-7.06Z"/><path class="cls-4" d="M329.35,160.33a11.4,11.4,0,1,1-8.06-3.34A11,11,0,0,1,329.35,160.33Zm-8.06,2.36a5.7,5.7,0,1,0,4,1.66A5.46,5.46,0,0,0,321.29,162.69Z"/><path class="cls-4" d="M342.45,152.11V179h-5.69V152.11Z"/><path class="cls-4" d="M366,160.33a11.38,11.38,0,1,1-8.05-3.34A11,11,0,0,1,366,160.33Zm-8.05,2.36a5.68,5.68,0,1,0,4,1.66A5.49,5.49,0,0,0,357.92,162.69Z"/><path class="cls-4" d="M388.74,156.57l7.52,10.07,7.52-10.07h3.66V179h-4.75V166l-5.34,7.17h-2.18l-5.37-7.22V179h-4.75v-22.4Z"/><path class="cls-4" d="M416.24,175.57V179h-4.75v-3.4Z"/><path class="cls-4" d="M435.27,156.57V179h-4.75v-22.4Z"/><path class="cls-4" d="M444.06,175.57V179h-4.75v-3.4Z"/></svg>